# xmcd
#
# Track frame offsets:
#	150
#	11370
#	22735
#	38665
#	55732
#	70575
#	89782
#	107210
#	125987
#	140240
#	156927
#	169240
#	186125
#	201152
#
# Disc length: 2908 seconds
#
# Revision: 4
# Processed by: cddbd v1.5.1PL0 Copyright (c) Steve Scherf et al.
# Submitted via: audiograbber 1.83.01
#
DISCID=c40b5a0e
DTITLE=Various Artist - Hot Hits Country Vol. 44
DYEAR=1995
DGENRE=Country
TTITLE0=Toby Keith - You Ain't Much Fun
TTITLE1=Shenandoah - Darned If I Don't (Dangled If I Do)
TTITLE2=George Ducas - Hello Cruel World
TTITLE3=Vince Gill - You Better Think Twice
TTITLE4=Trisha Yearwood - You Can Sleep While I Drive
TTITLE5=Shania Twain - Any Man Of Mine
TTITLE6=Alan Jackson - I Don't Even Know Your Name
TTITLE7=Little Texas - Southern Grace
TTITLE8=Daryle Singletary - I'm Living Up To Her Low Expectations
TTITLE9=David Ball - What Do You Want With His Love
TTITLE10=Lee Roy Parnell - A Little Bit Of You
TTITLE11=Blackhawk - That's Just About Right
TTITLE12=Diamond Rio - Finish What We Started
TTITLE13=John Anderson - Mississippi Moon
EXTD=
EXTT0=
EXTT1=
EXTT2=
EXTT3=
EXTT4=
EXTT5=
EXTT6=
EXTT7=
EXTT8=
EXTT9=
EXTT10=
EXTT11=
EXTT12=
EXTT13=
PLAYORDER=
